<mxfile host="app.diagrams.net" modified="2023-10-11T10:07:08.190Z" agent="Mozilla/5.0 (Windows NT 10.0; Win64; x64) AppleWebKit/537.36 (KHTML, like Gecko) Chrome/117.0.0.0 Safari/537.36" etag="qEle52_2Ho06YwKMehvc" version="22.0.4" type="device">
  <diagram name="Page-1" id="_EmiYEcZfJq1C_OlLP5o">
    <mxGraphModel dx="681" dy="457" grid="1" gridSize="10" guides="1" tooltips="1" connect="1" arrows="1" fold="1" page="1" pageScale="1" pageWidth="827" pageHeight="1169" math="0" shadow="0">
      <root>
        <mxCell id="0" />
        <mxCell id="1" parent="0" />
        <mxCell id="wtBC-moqXdgKIO8oTk6P-3" style="edgeStyle=orthogonalEdgeStyle;rounded=0;orthogonalLoop=1;jettySize=auto;html=1;" edge="1" parent="1" source="wtBC-moqXdgKIO8oTk6P-1">
          <mxGeometry relative="1" as="geometry">
            <mxPoint x="420" y="320" as="targetPoint" />
          </mxGeometry>
        </mxCell>
        <mxCell id="wtBC-moqXdgKIO8oTk6P-1" value="MVC" style="rounded=1;whiteSpace=wrap;html=1;" vertex="1" parent="1">
          <mxGeometry x="360" y="240" width="120" height="40" as="geometry" />
        </mxCell>
        <mxCell id="wtBC-moqXdgKIO8oTk6P-2" value="" style="endArrow=none;html=1;rounded=0;strokeWidth=5;" edge="1" parent="1">
          <mxGeometry width="50" height="50" relative="1" as="geometry">
            <mxPoint x="280" y="320" as="sourcePoint" />
            <mxPoint x="560" y="320" as="targetPoint" />
          </mxGeometry>
        </mxCell>
        <mxCell id="wtBC-moqXdgKIO8oTk6P-12" style="edgeStyle=orthogonalEdgeStyle;rounded=0;orthogonalLoop=1;jettySize=auto;html=1;" edge="1" parent="1" target="wtBC-moqXdgKIO8oTk6P-4">
          <mxGeometry relative="1" as="geometry">
            <mxPoint x="320" y="320" as="sourcePoint" />
            <Array as="points">
              <mxPoint x="320" y="340" />
              <mxPoint x="100" y="340" />
            </Array>
          </mxGeometry>
        </mxCell>
        <mxCell id="wtBC-moqXdgKIO8oTk6P-51" style="edgeStyle=orthogonalEdgeStyle;rounded=0;orthogonalLoop=1;jettySize=auto;html=1;" edge="1" parent="1" source="wtBC-moqXdgKIO8oTk6P-4">
          <mxGeometry relative="1" as="geometry">
            <mxPoint x="100" y="480" as="targetPoint" />
          </mxGeometry>
        </mxCell>
        <mxCell id="wtBC-moqXdgKIO8oTk6P-4" value="Model" style="rounded=1;whiteSpace=wrap;html=1;" vertex="1" parent="1">
          <mxGeometry x="40" y="400" width="120" height="40" as="geometry" />
        </mxCell>
        <mxCell id="wtBC-moqXdgKIO8oTk6P-14" style="edgeStyle=orthogonalEdgeStyle;rounded=0;orthogonalLoop=1;jettySize=auto;html=1;" edge="1" parent="1" target="wtBC-moqXdgKIO8oTk6P-5">
          <mxGeometry relative="1" as="geometry">
            <mxPoint x="360" y="320" as="sourcePoint" />
            <Array as="points">
              <mxPoint x="360" y="360" />
              <mxPoint x="260" y="360" />
            </Array>
          </mxGeometry>
        </mxCell>
        <mxCell id="wtBC-moqXdgKIO8oTk6P-5" value="Vue (front-end)" style="rounded=1;whiteSpace=wrap;html=1;" vertex="1" parent="1">
          <mxGeometry x="200" y="400" width="120" height="40" as="geometry" />
        </mxCell>
        <mxCell id="wtBC-moqXdgKIO8oTk6P-15" style="edgeStyle=orthogonalEdgeStyle;rounded=0;orthogonalLoop=1;jettySize=auto;html=1;" edge="1" parent="1" target="wtBC-moqXdgKIO8oTk6P-6">
          <mxGeometry relative="1" as="geometry">
            <mxPoint x="420" y="320" as="sourcePoint" />
          </mxGeometry>
        </mxCell>
        <mxCell id="wtBC-moqXdgKIO8oTk6P-46" style="edgeStyle=orthogonalEdgeStyle;rounded=0;orthogonalLoop=1;jettySize=auto;html=1;" edge="1" parent="1" source="wtBC-moqXdgKIO8oTk6P-6">
          <mxGeometry relative="1" as="geometry">
            <mxPoint x="420" y="480" as="targetPoint" />
          </mxGeometry>
        </mxCell>
        <mxCell id="wtBC-moqXdgKIO8oTk6P-6" value="Controler" style="rounded=1;whiteSpace=wrap;html=1;" vertex="1" parent="1">
          <mxGeometry x="360" y="400" width="120" height="40" as="geometry" />
        </mxCell>
        <mxCell id="wtBC-moqXdgKIO8oTk6P-16" style="edgeStyle=orthogonalEdgeStyle;rounded=0;orthogonalLoop=1;jettySize=auto;html=1;" edge="1" parent="1" target="wtBC-moqXdgKIO8oTk6P-7">
          <mxGeometry relative="1" as="geometry">
            <mxPoint x="480" y="320" as="sourcePoint" />
            <Array as="points">
              <mxPoint x="480" y="360" />
              <mxPoint x="580" y="360" />
            </Array>
          </mxGeometry>
        </mxCell>
        <mxCell id="wtBC-moqXdgKIO8oTk6P-27" style="edgeStyle=orthogonalEdgeStyle;rounded=0;orthogonalLoop=1;jettySize=auto;html=1;entryX=0.5;entryY=0;entryDx=0;entryDy=0;" edge="1" parent="1" source="wtBC-moqXdgKIO8oTk6P-7" target="wtBC-moqXdgKIO8oTk6P-25">
          <mxGeometry relative="1" as="geometry" />
        </mxCell>
        <mxCell id="wtBC-moqXdgKIO8oTk6P-7" value="Midleware" style="rounded=1;whiteSpace=wrap;html=1;" vertex="1" parent="1">
          <mxGeometry x="520" y="400" width="120" height="40" as="geometry" />
        </mxCell>
        <mxCell id="wtBC-moqXdgKIO8oTk6P-17" style="edgeStyle=orthogonalEdgeStyle;rounded=0;orthogonalLoop=1;jettySize=auto;html=1;" edge="1" parent="1" target="wtBC-moqXdgKIO8oTk6P-8">
          <mxGeometry relative="1" as="geometry">
            <mxPoint x="520" y="320" as="sourcePoint" />
            <Array as="points">
              <mxPoint x="520" y="340" />
              <mxPoint x="740" y="340" />
            </Array>
          </mxGeometry>
        </mxCell>
        <mxCell id="wtBC-moqXdgKIO8oTk6P-65" style="edgeStyle=orthogonalEdgeStyle;rounded=0;orthogonalLoop=1;jettySize=auto;html=1;" edge="1" parent="1" source="wtBC-moqXdgKIO8oTk6P-8">
          <mxGeometry relative="1" as="geometry">
            <mxPoint x="740" y="480" as="targetPoint" />
          </mxGeometry>
        </mxCell>
        <mxCell id="wtBC-moqXdgKIO8oTk6P-8" value="Routes" style="rounded=1;whiteSpace=wrap;html=1;" vertex="1" parent="1">
          <mxGeometry x="680" y="400" width="120" height="40" as="geometry" />
        </mxCell>
        <mxCell id="wtBC-moqXdgKIO8oTk6P-22" style="edgeStyle=orthogonalEdgeStyle;rounded=0;orthogonalLoop=1;jettySize=auto;html=1;entryX=0;entryY=0.5;entryDx=0;entryDy=0;" edge="1" parent="1" source="wtBC-moqXdgKIO8oTk6P-18" target="wtBC-moqXdgKIO8oTk6P-21">
          <mxGeometry relative="1" as="geometry" />
        </mxCell>
        <mxCell id="wtBC-moqXdgKIO8oTk6P-31" style="edgeStyle=orthogonalEdgeStyle;rounded=0;orthogonalLoop=1;jettySize=auto;html=1;entryX=0.5;entryY=0;entryDx=0;entryDy=0;" edge="1" parent="1" source="wtBC-moqXdgKIO8oTk6P-18" target="wtBC-moqXdgKIO8oTk6P-1">
          <mxGeometry relative="1" as="geometry" />
        </mxCell>
        <mxCell id="wtBC-moqXdgKIO8oTk6P-33" style="edgeStyle=orthogonalEdgeStyle;rounded=0;orthogonalLoop=1;jettySize=auto;html=1;" edge="1" parent="1" source="wtBC-moqXdgKIO8oTk6P-18" target="wtBC-moqXdgKIO8oTk6P-32">
          <mxGeometry relative="1" as="geometry" />
        </mxCell>
        <mxCell id="wtBC-moqXdgKIO8oTk6P-18" value="" style="rhombus;whiteSpace=wrap;html=1;" vertex="1" parent="1">
          <mxGeometry x="400" y="160" width="40" height="40" as="geometry" />
        </mxCell>
        <mxCell id="wtBC-moqXdgKIO8oTk6P-21" value="pom.xml" style="rounded=1;whiteSpace=wrap;html=1;" vertex="1" parent="1">
          <mxGeometry x="480" y="160" width="120" height="40" as="geometry" />
        </mxCell>
        <mxCell id="wtBC-moqXdgKIO8oTk6P-56" style="edgeStyle=orthogonalEdgeStyle;rounded=0;orthogonalLoop=1;jettySize=auto;html=1;" edge="1" parent="1" target="wtBC-moqXdgKIO8oTk6P-23">
          <mxGeometry relative="1" as="geometry">
            <mxPoint x="150" y="480" as="sourcePoint" />
          </mxGeometry>
        </mxCell>
        <mxCell id="wtBC-moqXdgKIO8oTk6P-23" value="MessageCommentaires.java" style="rounded=1;whiteSpace=wrap;html=1;" vertex="1" parent="1">
          <mxGeometry x="120" y="520" width="120" height="40" as="geometry" />
        </mxCell>
        <mxCell id="wtBC-moqXdgKIO8oTk6P-49" style="edgeStyle=orthogonalEdgeStyle;rounded=0;orthogonalLoop=1;jettySize=auto;html=1;" edge="1" parent="1" target="wtBC-moqXdgKIO8oTk6P-24">
          <mxGeometry relative="1" as="geometry">
            <mxPoint x="380" y="480" as="sourcePoint" />
            <Array as="points">
              <mxPoint x="380" y="620" />
            </Array>
          </mxGeometry>
        </mxCell>
        <mxCell id="wtBC-moqXdgKIO8oTk6P-24" value="MessageControler.java" style="rounded=1;whiteSpace=wrap;html=1;" vertex="1" parent="1">
          <mxGeometry x="400" y="600" width="120" height="40" as="geometry" />
        </mxCell>
        <mxCell id="wtBC-moqXdgKIO8oTk6P-25" value="Auth.java" style="rounded=1;whiteSpace=wrap;html=1;" vertex="1" parent="1">
          <mxGeometry x="520" y="480" width="120" height="40" as="geometry" />
        </mxCell>
        <mxCell id="wtBC-moqXdgKIO8oTk6P-66" style="edgeStyle=orthogonalEdgeStyle;rounded=0;orthogonalLoop=1;jettySize=auto;html=1;" edge="1" parent="1" target="wtBC-moqXdgKIO8oTk6P-26">
          <mxGeometry relative="1" as="geometry">
            <mxPoint x="740" y="480" as="sourcePoint" />
          </mxGeometry>
        </mxCell>
        <mxCell id="wtBC-moqXdgKIO8oTk6P-26" value="MessagesRoutes.java" style="rounded=1;whiteSpace=wrap;html=1;" vertex="1" parent="1">
          <mxGeometry x="720" y="520" width="120" height="40" as="geometry" />
        </mxCell>
        <mxCell id="wtBC-moqXdgKIO8oTk6P-30" style="edgeStyle=orthogonalEdgeStyle;rounded=0;orthogonalLoop=1;jettySize=auto;html=1;entryX=0.5;entryY=0;entryDx=0;entryDy=0;" edge="1" parent="1" source="wtBC-moqXdgKIO8oTk6P-28" target="wtBC-moqXdgKIO8oTk6P-18">
          <mxGeometry relative="1" as="geometry" />
        </mxCell>
        <mxCell id="wtBC-moqXdgKIO8oTk6P-28" value="webservices" style="rounded=1;whiteSpace=wrap;html=1;" vertex="1" parent="1">
          <mxGeometry x="360" y="80" width="120" height="40" as="geometry" />
        </mxCell>
        <mxCell id="wtBC-moqXdgKIO8oTk6P-32" value="Main.java" style="rounded=1;whiteSpace=wrap;html=1;" vertex="1" parent="1">
          <mxGeometry x="240" y="160" width="120" height="40" as="geometry" />
        </mxCell>
        <mxCell id="wtBC-moqXdgKIO8oTk6P-54" style="edgeStyle=orthogonalEdgeStyle;rounded=0;orthogonalLoop=1;jettySize=auto;html=1;" edge="1" parent="1" target="wtBC-moqXdgKIO8oTk6P-38">
          <mxGeometry relative="1" as="geometry">
            <mxPoint x="100" y="480" as="sourcePoint" />
            <Array as="points">
              <mxPoint x="100" y="590" />
              <mxPoint x="180" y="590" />
            </Array>
          </mxGeometry>
        </mxCell>
        <mxCell id="wtBC-moqXdgKIO8oTk6P-38" value="MessageContactModel.java" style="rounded=1;whiteSpace=wrap;html=1;" vertex="1" parent="1">
          <mxGeometry x="120" y="600" width="120" height="40" as="geometry" />
        </mxCell>
        <mxCell id="wtBC-moqXdgKIO8oTk6P-47" style="edgeStyle=orthogonalEdgeStyle;rounded=0;orthogonalLoop=1;jettySize=auto;html=1;" edge="1" parent="1" target="wtBC-moqXdgKIO8oTk6P-40">
          <mxGeometry relative="1" as="geometry">
            <mxPoint x="460" y="480" as="sourcePoint" />
          </mxGeometry>
        </mxCell>
        <mxCell id="wtBC-moqXdgKIO8oTk6P-40" value="UserControler.java" style="rounded=1;whiteSpace=wrap;html=1;" vertex="1" parent="1">
          <mxGeometry x="400" y="520" width="120" height="40" as="geometry" />
        </mxCell>
        <mxCell id="wtBC-moqXdgKIO8oTk6P-45" value="" style="endArrow=none;html=1;rounded=0;strokeWidth=5;" edge="1" parent="1">
          <mxGeometry width="50" height="50" relative="1" as="geometry">
            <mxPoint x="360" y="480" as="sourcePoint" />
            <mxPoint x="480" y="480" as="targetPoint" />
          </mxGeometry>
        </mxCell>
        <mxCell id="wtBC-moqXdgKIO8oTk6P-50" value="" style="endArrow=none;html=1;rounded=0;strokeWidth=5;" edge="1" parent="1">
          <mxGeometry width="50" height="50" relative="1" as="geometry">
            <mxPoint x="20" y="480" as="sourcePoint" />
            <mxPoint x="180" y="480" as="targetPoint" />
          </mxGeometry>
        </mxCell>
        <mxCell id="wtBC-moqXdgKIO8oTk6P-58" style="edgeStyle=orthogonalEdgeStyle;rounded=0;orthogonalLoop=1;jettySize=auto;html=1;" edge="1" parent="1" target="wtBC-moqXdgKIO8oTk6P-57">
          <mxGeometry relative="1" as="geometry">
            <mxPoint x="80" y="480" as="sourcePoint" />
            <Array as="points">
              <mxPoint x="80" y="670" />
              <mxPoint x="180" y="670" />
            </Array>
          </mxGeometry>
        </mxCell>
        <mxCell id="wtBC-moqXdgKIO8oTk6P-57" value="MessagePrivate.java" style="rounded=1;whiteSpace=wrap;html=1;" vertex="1" parent="1">
          <mxGeometry x="120" y="680" width="120" height="40" as="geometry" />
        </mxCell>
        <mxCell id="wtBC-moqXdgKIO8oTk6P-60" style="edgeStyle=orthogonalEdgeStyle;rounded=0;orthogonalLoop=1;jettySize=auto;html=1;" edge="1" parent="1" target="wtBC-moqXdgKIO8oTk6P-59">
          <mxGeometry relative="1" as="geometry">
            <mxPoint x="60" y="480" as="sourcePoint" />
            <Array as="points">
              <mxPoint x="60" y="750" />
              <mxPoint x="180" y="750" />
            </Array>
          </mxGeometry>
        </mxCell>
        <mxCell id="wtBC-moqXdgKIO8oTk6P-59" value="PostCommerce.java" style="rounded=1;whiteSpace=wrap;html=1;" vertex="1" parent="1">
          <mxGeometry x="120" y="760" width="120" height="40" as="geometry" />
        </mxCell>
        <mxCell id="wtBC-moqXdgKIO8oTk6P-62" style="edgeStyle=orthogonalEdgeStyle;rounded=0;orthogonalLoop=1;jettySize=auto;html=1;" edge="1" parent="1" target="wtBC-moqXdgKIO8oTk6P-61">
          <mxGeometry relative="1" as="geometry">
            <mxPoint x="39.999999999999886" y="480" as="sourcePoint" />
            <Array as="points">
              <mxPoint x="40" y="830" />
              <mxPoint x="180" y="830" />
            </Array>
          </mxGeometry>
        </mxCell>
        <mxCell id="wtBC-moqXdgKIO8oTk6P-61" value="UserModel.java" style="rounded=1;whiteSpace=wrap;html=1;" vertex="1" parent="1">
          <mxGeometry x="120" y="840" width="120" height="40" as="geometry" />
        </mxCell>
        <mxCell id="wtBC-moqXdgKIO8oTk6P-64" value="" style="endArrow=none;html=1;rounded=0;strokeWidth=5;" edge="1" parent="1">
          <mxGeometry width="50" height="50" relative="1" as="geometry">
            <mxPoint x="680" y="480" as="sourcePoint" />
            <mxPoint x="800" y="480" as="targetPoint" />
          </mxGeometry>
        </mxCell>
        <mxCell id="wtBC-moqXdgKIO8oTk6P-68" style="edgeStyle=orthogonalEdgeStyle;rounded=0;orthogonalLoop=1;jettySize=auto;html=1;" edge="1" parent="1" target="wtBC-moqXdgKIO8oTk6P-67">
          <mxGeometry relative="1" as="geometry">
            <mxPoint x="700" y="480" as="sourcePoint" />
            <Array as="points">
              <mxPoint x="700" y="620" />
            </Array>
          </mxGeometry>
        </mxCell>
        <mxCell id="wtBC-moqXdgKIO8oTk6P-67" value="UserRoutes.java" style="rounded=1;whiteSpace=wrap;html=1;" vertex="1" parent="1">
          <mxGeometry x="720" y="600" width="120" height="40" as="geometry" />
        </mxCell>
      </root>
    </mxGraphModel>
  </diagram>
</mxfile>
